<svg width="22" height="24" viewBox="0 0 22 24" fill="none" xmlns="http://www.w3.org/2000/svg">
<mask id="mask0_837_6663" style="mask-type:luminance" maskUnits="userSpaceOnUse" x="1" y="0" width="21" height="24">
<path d="M21.34 0H1.33997V24H21.34V0Z" fill="white"/>
</mask>
<g mask="url(#mask0_837_6663)">
<path fill-rule="evenodd" clip-rule="evenodd" d="M13.34 9C13.34 10.1046 12.4446 11 11.34 11C10.2354 11 9.33997 10.1046 9.33997 9C9.33997 7.89543 10.2354 7 11.34 7C12.4446 7 13.34 7.89543 13.34 9ZM12.34 9C12.34 9.55228 11.8922 10 11.34 10C10.7877 10 10.34 9.55228 10.34 9C10.34 8.44772 10.7877 8 11.34 8C11.8922 8 12.34 8.44772 12.34 9Z" fill="white"/>
<path fill-rule="evenodd" clip-rule="evenodd" d="M19.1372 13.3341L19.136 13.3333L19.1377 13.3304C19.3251 13.0101 19.4928 12.6772 19.6393 12.3333C20.0906 11.274 20.34 10.1102 20.34 8.88889C20.34 3.97969 16.3105 0 11.34 0C6.36943 0 2.33997 3.97969 2.33997 8.88889C2.33997 10.5728 2.81403 12.1474 3.63762 13.4895L9.81737 24H12.8629L19.1372 13.3341ZM4.49487 12.9745L4.48993 12.9665C3.75985 11.7767 3.33997 10.3824 3.33997 8.88889C3.33997 4.54365 6.90996 1 11.34 1C15.77 1 19.34 4.54365 19.34 8.88889C19.34 10.325 18.9517 11.6692 18.2731 12.8279L17.8854 13.4898L12.291 23H10.3895L4.49487 12.9745Z" fill="white"/>
</g>
</svg>
