<svg width="58" height="45" viewBox="0 0 58 45" fill="none" xmlns="http://www.w3.org/2000/svg">
<g clip-path="url(#clip0_837_6695)">
<mask id="mask0_837_6695" style="mask-type:luminance" maskUnits="userSpaceOnUse" x="1" y="0" width="57" height="45">
<path d="M57.38 0.5H1.38V44.5H57.38V0.5Z" fill="white"/>
</mask>
<g mask="url(#mask0_837_6695)">
<mask id="mask1_837_6695" style="mask-type:luminance" maskUnits="userSpaceOnUse" x="1" y="0" width="57" height="45">
<path d="M57.38 0.5H1.38V44.5H57.38V0.5Z" fill="white"/>
</mask>
<g mask="url(#mask1_837_6695)">
<path d="M1.97577 8.01025H5.2512V13.7466H8.81754V8.01025H12.0929V5.27588H1.97577V8.01025Z" stroke="white" stroke-width="0.893617" stroke-linejoin="round"/>
<path fill-rule="evenodd" clip-rule="evenodd" d="M13.0005 13.7466H16.5145V11.3671H18.5681L19.947 13.7466H23.7635L21.8585 10.8972C22.0187 10.798 22.165 10.6831 22.2974 10.5526C22.852 10.0096 23.1293 9.232 23.1293 8.2197C23.1293 7.27333 22.8579 6.5461 22.3148 6.03801C21.7719 5.52992 20.9923 5.27588 19.9761 5.27588H13.0005V13.7466ZM16.5145 7.64955V9.232H18.9871C19.1694 9.232 19.3109 9.16606 19.4118 9.03419C19.5126 8.90232 19.563 8.71227 19.563 8.46404C19.563 8.20418 19.5126 8.00443 19.4118 7.8648C19.3109 7.7213 19.1694 7.64955 18.9871 7.64955H16.5145Z" stroke="white" stroke-width="0.893617" stroke-linejoin="round"/>
<path fill-rule="evenodd" clip-rule="evenodd" d="M24.3038 13.7467H28.1727L28.6839 12.6122H32.0119L32.5186 13.7467H36.562L32.2626 5.22363H28.6614L24.3038 13.7467ZM30.3543 8.94703H30.3427C30.1425 9.44749 29.891 9.93321 29.6695 10.4247H31.0349C30.8135 9.92914 30.5971 9.43245 30.3543 8.94703Z" stroke="white" stroke-width="0.893617" stroke-linejoin="round"/>
<path fill-rule="evenodd" clip-rule="evenodd" d="M37.1263 13.7466H42.8626C44.1077 13.7466 45.1452 13.3878 45.9752 12.6703C46.8052 11.9528 47.2202 10.9036 47.2202 9.52289V9.39489C47.2202 7.99474 46.811 6.95917 45.9926 6.28818C45.1743 5.61331 44.1309 5.27588 42.8626 5.27588H37.1263V13.7466ZM40.5239 7.71936V11.4195H42.4322C42.7114 11.4195 42.9907 11.276 43.2699 10.9889C43.5531 10.6981 43.6946 10.2191 43.6946 9.55197V9.42398C43.6946 8.7879 43.5685 8.34575 43.3165 8.09752C43.0682 7.84541 42.7735 7.71936 42.4322 7.71936H40.5239Z" stroke="white" stroke-width="0.893617" stroke-linejoin="round"/>
<path d="M48.1685 13.7466H57.0465V11.2217H51.4323V10.6515H56.4764V8.42914H51.4323V7.91716H56.9301V5.27588H48.1685V13.7466Z" stroke="white" stroke-width="0.893617" stroke-linejoin="round"/>
<path d="M18.7985 40.0368H30.6389L30.5831 27.5448C30.5831 27.4239 30.5706 27.3162 30.5831 27.1911H30.6389C30.74 27.4269 30.852 27.6064 31.0113 27.8055L44.1735 40.0368H57.0378V15.832H45.2533V26.8905V27.5049V28.1192H45.1788C45.0625 27.9697 44.992 27.8151 44.8623 27.6724L32.0352 15.832H18.7985V40.0368Z" stroke="white" stroke-width="0.893617" stroke-linejoin="round"/>
<path d="M1.97577 40.0368H15.7896V15.832H1.97577V40.0368Z" stroke="white" stroke-width="0.893617" stroke-linejoin="round"/>
<path d="M45.2533 26.8903V15.8318H57.0378V40.0366H44.1735L31.0113 27.8052C30.852 27.6061 30.74 27.4266 30.639 27.1908H30.5831C30.5706 27.316 30.5831 27.4237 30.5831 27.5446L30.639 40.0366H18.7985V15.8318H32.0352L44.8623 27.6722C44.992 27.8149 45.0625 27.9695 45.1788 28.119H45.2533M45.2533 26.8903C45.2533 27.1634 45.2533 27.3681 45.2533 27.5047M45.2533 26.8903V27.5047M45.2533 28.119C45.2533 27.846 45.2533 27.6412 45.2533 27.5047M45.2533 28.119V27.5047M1.97577 8.01036H5.2512V13.7467H8.81754V8.01036H12.0929V5.27599H1.97577V8.01036ZM13.0006 13.7467H16.5145V11.3672H18.5682L19.947 13.7467H23.7635L21.8585 10.8973C22.0187 10.7981 22.165 10.6832 22.2974 10.5527C22.852 10.0097 23.1294 9.23211 23.1294 8.21981C23.1294 7.27344 22.8579 6.54621 22.3148 6.03812C21.7719 5.53003 20.9923 5.27599 19.9761 5.27599H13.0006V13.7467ZM16.5145 9.23211V7.64966H18.9871C19.1694 7.64966 19.3109 7.72141 19.4118 7.86492C19.5126 8.00455 19.563 8.20429 19.563 8.46415C19.563 8.71238 19.5126 8.90243 19.4118 9.0343C19.3109 9.16617 19.1694 9.23211 18.9871 9.23211H16.5145ZM24.3039 13.7467H28.1727L28.6839 12.6122H32.0119L32.5186 13.7467H36.562L32.2627 5.22363H28.6614L24.3039 13.7467ZM30.3427 8.94703H30.3544C30.5971 9.43245 30.8135 9.92914 31.0349 10.4247H29.6696C29.8911 9.93321 30.1426 9.44749 30.3427 8.94703ZM37.1263 13.7467H42.8627C44.1077 13.7467 45.1452 13.3879 45.9752 12.6704C46.8053 11.9529 47.2203 10.9037 47.2203 9.523V9.395C47.2203 7.99485 46.811 6.95928 45.9927 6.28829C45.1743 5.61342 44.131 5.27599 42.8627 5.27599H37.1263V13.7467ZM40.524 11.4196V7.71947H42.4322C42.7735 7.71947 43.0683 7.84552 43.3165 8.09763C43.5686 8.34586 43.6946 8.78801 43.6946 9.42409V9.55208C43.6946 10.2192 43.5531 10.6982 43.2699 10.989C42.9907 11.2761 42.7114 11.4196 42.4322 11.4196H40.524ZM48.1686 13.7467H57.0465V11.2218H51.4323V10.6516H56.4764V8.42925H51.4323V7.91728H56.9302V5.27599H48.1686V13.7467ZM1.97577 40.0368H15.7896V15.832H1.97577V40.0368Z" stroke="white" stroke-width="0.893617" stroke-linejoin="round"/>
</g>
</g>
</g>
<defs>
<clipPath id="clip0_837_6695">
<rect width="57" height="45" fill="white" transform="translate(0.5)"/>
</clipPath>
</defs>
</svg>
