<svg width="58" height="45" viewBox="0 0 58 45" fill="none" xmlns="http://www.w3.org/2000/svg">
<g clip-path="url(#clip0_837_6737)">
<mask id="mask0_837_6737" style="mask-type:luminance" maskUnits="userSpaceOnUse" x="1" y="0" width="57" height="45">
<path d="M57.38 0.5H1.38V44.5H57.38V0.5Z" fill="white"/>
</mask>
<g mask="url(#mask0_837_6737)">
<mask id="mask1_837_6737" style="mask-type:luminance" maskUnits="userSpaceOnUse" x="1" y="0" width="57" height="45">
<path d="M57.38 0.5H1.38V44.5H57.38V0.5Z" fill="white"/>
</mask>
<g mask="url(#mask1_837_6737)">
<path fill-rule="evenodd" clip-rule="evenodd" d="M15.4719 26.2744H23.5399V22.9992H27.6414V16.2384H23.5399V4.39941H16.4485L1.99536 16.5839V22.9992H15.4719V26.2744ZM15.9828 12.3772L10.8896 16.6891H16.118V12.3772H15.9828Z" stroke="white" stroke-width="0.923077" stroke-linejoin="round"/>
<path fill-rule="evenodd" clip-rule="evenodd" d="M29.6697 15.1864C29.6697 18.9925 30.8416 21.852 33.1853 23.7651C35.5391 25.6782 38.9145 26.6347 43.3115 26.6347C47.4081 26.6347 50.7083 25.7182 53.2123 23.8853C55.7163 22.0424 56.9684 19.1527 56.9684 15.2165V15.0512C56.9684 11.2651 55.7814 8.48569 53.4076 6.71285C51.0439 4.93 47.6785 4.03857 43.3115 4.03857C38.9445 4.03857 35.5792 4.95504 33.2153 6.78797C30.8516 8.61089 29.6697 11.3703 29.6697 15.0662V15.1864ZM38.654 14.8859V15.3366C38.654 17.2797 39.0297 18.682 39.7809 19.5434C40.5321 20.3947 41.7089 20.8204 43.3115 20.8204C44.9041 20.8204 46.0809 20.3947 46.8422 19.5434C47.6134 18.682 47.999 17.2898 47.999 15.3667V14.901C47.999 13.088 47.6034 11.826 46.8121 11.1149C46.0308 10.3937 44.864 10.0331 43.3115 10.0331C41.749 10.0331 40.5822 10.3887 39.8109 11.0998C39.0396 11.811 38.654 13.073 38.654 14.8859Z" stroke="white" stroke-width="0.923077" stroke-linejoin="round"/>
<path d="M39.0459 41.0434V28.7935H33.493L29.892 34.1949C29.7819 34.354 29.693 34.5159 29.5976 34.6829H29.5639C29.572 34.4724 29.5723 34.2625 29.5723 34.0519V28.7935H24.4906V41.0434H30.0435L33.6949 35.4148C33.7988 35.2515 33.8922 35.09 33.9641 34.91H33.9978V35.4569L33.9726 41.0434H39.0459Z" stroke="white" stroke-width="0.923077" stroke-linejoin="round"/>
<path d="M41.4635 41.0434H46.5453V36.8283H50.7015V41.0434H55.7748V28.7935H50.7015V32.5963H46.5453V28.7935H41.4635V41.0434Z" stroke="white" stroke-width="0.923077" stroke-linejoin="round"/>
<path d="M2.3241 41.0434H7.18708V35.743V35.3559H7.22073C7.28756 35.4896 7.3569 35.6023 7.43948 35.7262L10.8217 41.0434H13.6907L16.9888 35.7262C17.0716 35.595 17.1558 35.4655 17.2328 35.3307H17.2664V35.7514V41.0434H22.222V28.7935H16.0717L12.4119 34.6577C12.367 34.725 12.3189 34.7901 12.2772 34.8596H12.2604C12.2323 34.7891 12.176 34.7203 12.1342 34.6577L8.407 28.7935H2.3241V41.0434Z" stroke="white" stroke-width="0.923077" stroke-linejoin="round"/>
<path d="M7.18707 35.7429V41.0434H2.32409V28.7934H8.40699L12.1342 34.6576C12.176 34.7202 12.2323 34.789 12.2604 34.8595H12.2772C12.3189 34.79 12.367 34.7249 12.4119 34.6576L16.0717 28.7934H22.222V41.0434H17.2664V35.7513M7.18707 35.7429C7.18707 35.6139 7.18707 35.4849 7.18707 35.3558M7.18707 35.7429V35.3558M17.2664 35.7513C17.2664 35.611 17.2664 35.4709 17.2664 35.3306M17.2664 35.7513V35.3306M7.18707 35.3558H7.22072C7.28755 35.4895 7.35689 35.6022 7.43947 35.7261L10.8217 41.0434H13.6907L16.9888 35.7261C17.0716 35.5949 17.1558 35.4654 17.2327 35.3306H17.2664M33.9978 34.9099H33.9641C33.8922 35.0899 33.7988 35.2514 33.6949 35.4147L30.0435 41.0434H24.4906V28.7934H29.5723V34.0518C29.5723 34.2624 29.572 34.4723 29.5639 34.6828H29.5975C29.693 34.5158 29.7819 34.3539 29.892 34.1948L33.493 28.7934H39.0459V41.0434H33.9726L33.9978 35.4568M33.9978 34.9099C33.9978 35.0922 33.9978 35.2746 33.9978 35.4568M33.9978 34.9099V35.4568M15.4719 26.2741H23.5399V22.9989H27.6414V16.2381H23.5399V4.39915H16.4485L1.99536 16.5836V22.9989H15.4719V26.2741ZM10.8896 16.6888L15.9828 12.3769H16.118V16.6888H10.8896ZM29.6697 15.1864C29.6697 18.9925 30.8415 21.852 33.1853 23.7651C35.5391 25.6782 38.9145 26.6347 43.3115 26.6347C47.4081 26.6347 50.7083 25.7182 53.2123 23.8853C55.7163 22.0424 56.9684 19.1527 56.9684 15.2165V15.0512C56.9684 11.2651 55.7814 8.48569 53.4076 6.71285C51.0439 4.93 47.6785 4.03857 43.3115 4.03857C38.9445 4.03857 35.5791 4.95504 33.2153 6.78797C30.8516 8.61089 29.6697 11.3703 29.6697 15.0662V15.1864ZM38.654 15.3366V14.8859C38.654 13.073 39.0396 11.811 39.8109 11.0998C40.5822 10.3887 41.749 10.0331 43.3115 10.0331C44.864 10.0331 46.0308 10.3937 46.8121 11.1149C47.6034 11.826 47.999 13.088 47.999 14.901V15.3667C47.999 17.2898 47.6134 18.682 46.8422 19.5434C46.0809 20.3947 44.9041 20.8204 43.3115 20.8204C41.7089 20.8204 40.5321 20.3947 39.7809 19.5434C39.0297 18.682 38.654 17.2797 38.654 15.3366ZM41.4635 41.0434H46.5453V36.8282H50.7015V41.0434H55.7748V28.7934H50.7015V32.5962H46.5453V28.7934H41.4635V41.0434Z" stroke="white" stroke-width="0.923077" stroke-linejoin="round"/>
</g>
</g>
</g>
<defs>
<clipPath id="clip0_837_6737">
<rect width="57" height="45" fill="white" transform="translate(0.5)"/>
</clipPath>
</defs>
</svg>
