<svg width="58" height="45" viewBox="0 0 58 45" fill="none" xmlns="http://www.w3.org/2000/svg">
<g clip-path="url(#clip0_837_6646)">
<mask id="mask0_837_6646" style="mask-type:luminance" maskUnits="userSpaceOnUse" x="1" y="0" width="57" height="45">
<path d="M57.38 0.5H1.38V44.5H57.38V0.5Z" fill="white"/>
</mask>
<g mask="url(#mask0_837_6646)">
<mask id="mask1_837_6646" style="mask-type:luminance" maskUnits="userSpaceOnUse" x="1" y="0" width="57" height="45">
<path d="M57.38 0.5H1.38V44.5H57.38V0.5Z" fill="white"/>
</mask>
<g mask="url(#mask1_837_6646)">
<path fill-rule="evenodd" clip-rule="evenodd" d="M21.6654 39.2947H28.114V32.2993H29.823V26.785H28.114V6.11768H21.8705L13.8724 26.9673V32.2993H21.6654V39.2947ZM21.6654 18.3312L19.4551 27.0812H21.8249V18.3312H21.6654Z" stroke="white" stroke-width="0.875" stroke-linejoin="round"/>
<path d="M41.3866 6.11768H35.8268L29.53 39.2947H35.0683L41.3866 6.11768Z" stroke="white" stroke-width="0.875" stroke-linejoin="round"/>
<path d="M44.1539 39.2947H51.2176L56.6864 11.8599V6.11768H42.2853V12.2472H49.9872L44.1539 39.2947Z" stroke="white" stroke-width="0.875" stroke-linejoin="round"/>
<path d="M1.96338 39.2947H16.6606V33.4387H10.1665L12.9237 24.9165C13.7743 23.0936 14.5491 21.3618 15.2478 19.7212C15.9467 18.0805 16.296 15.9538 16.296 13.341C16.296 10.6522 15.7188 8.70774 14.5643 7.50765C13.4097 6.30757 11.5792 5.70752 9.07275 5.70752C6.79411 5.70752 5.05474 6.39871 3.85466 7.78109C2.65457 9.14828 2.05452 11.3586 2.05452 14.412V17.6704H8.16129V14.4803C8.16129 13.1131 8.15371 12.2321 8.13849 11.8371C8.13849 11.4889 8.38156 11.2218 8.91327 11.2218C9.47531 11.2218 9.78675 11.3737 9.84748 11.6776C9.92343 11.9662 9.9614 12.6574 9.9614 13.7512C9.9614 15.1791 9.73355 16.5538 9.27785 17.8755C8.83732 19.1819 8.37398 20.496 7.88783 21.8176L1.96338 34.2589V39.2947Z" stroke="white" stroke-width="0.875" stroke-linejoin="round"/>
<path fill-rule="evenodd" clip-rule="evenodd" d="M21.6654 39.2947H28.114V32.2993H29.823V26.785H28.114V6.11768H21.8705L13.8724 26.9673V32.2993H21.6654V39.2947ZM21.6654 18.3312L19.4551 27.0812H21.8249V18.3312H21.6654Z" stroke="white" stroke-width="0.875" stroke-linejoin="round"/>
<path d="M41.3866 6.11768H35.8268L29.53 39.2947H35.0683L41.3866 6.11768Z" stroke="white" stroke-width="0.875" stroke-linejoin="round"/>
<path d="M44.1539 39.2947H51.2176L56.6864 11.8599V6.11768H42.2853V12.2472H49.9872L44.1539 39.2947Z" stroke="white" stroke-width="0.875" stroke-linejoin="round"/>
<path d="M1.96338 39.2947H16.6606V33.4387H10.1665L12.9237 24.9165C13.7743 23.0936 14.5491 21.3618 15.2478 19.7212C15.9467 18.0805 16.296 15.9538 16.296 13.341C16.296 10.6522 15.7188 8.70774 14.5643 7.50765C13.4097 6.30757 11.5792 5.70752 9.07275 5.70752C6.79411 5.70752 5.05474 6.39871 3.85466 7.78109C2.65457 9.14828 2.05452 11.3586 2.05452 14.412V17.6704H8.16129V14.4803C8.16129 13.1131 8.15371 12.2321 8.13849 11.8371C8.13849 11.4889 8.38156 11.2218 8.91327 11.2218C9.47531 11.2218 9.78675 11.3737 9.84748 11.6776C9.92343 11.9662 9.9614 12.6574 9.9614 13.7512C9.9614 15.1791 9.73355 16.5538 9.27785 17.8755C8.83732 19.1819 8.37398 20.496 7.88783 21.8176L1.96338 34.2589V39.2947Z" stroke="white" stroke-width="0.875" stroke-linejoin="round"/>
</g>
</g>
</g>
<defs>
<clipPath id="clip0_837_6646">
<rect width="57" height="45" fill="white" transform="translate(0.5)"/>
</clipPath>
</defs>
</svg>
